<svg width="22" height="12" viewBox="0 0 22 12" fill="none" xmlns="http://www.w3.org/2000/svg">
<path d="M21.9345 5.65117C21.8929 5.53874 21.8305 5.43603 21.7509 5.34892L17.3817 0.769362C17.3003 0.683964 17.2035 0.616222 17.0971 0.570005C16.9906 0.523788 16.8765 0.5 16.7613 0.5C16.5286 0.5 16.3054 0.596892 16.1409 0.769362C16.0594 0.85476 15.9948 0.956143 15.9507 1.06772C15.9066 1.1793 15.8839 1.29889 15.8839 1.41966C15.8839 1.66357 15.9763 1.89749 16.1409 2.06996L19.0246 5.08331H0.873843C0.642085 5.08331 0.41982 5.17981 0.255943 5.35157C0.0920654 5.52334 0 5.7563 0 5.99922C0 6.24213 0.0920654 6.4751 0.255943 6.64687C0.41982 6.81863 0.642085 6.91513 0.873843 6.91513H19.0246L16.1409 9.92848C16.059 10.0136 15.994 10.1149 15.9496 10.2265C15.9052 10.3382 15.8824 10.4579 15.8824 10.5788C15.8824 10.6997 15.9052 10.8194 15.9496 10.931C15.994 11.0426 16.059 11.1439 16.1409 11.2291C16.2221 11.3149 16.3188 11.3831 16.4252 11.4296C16.5317 11.4761 16.6459 11.5 16.7613 11.5C16.8767 11.5 16.9909 11.4761 17.0974 11.4296C17.2038 11.3831 17.3005 11.3149 17.3817 11.2291L21.7509 6.64952C21.8305 6.56241 21.8929 6.4597 21.9345 6.34727C22.0218 6.12428 22.0218 5.87416 21.9345 5.65117Z" fill="black"/>
</svg>
