<svg width="20" height="26" viewBox="0 0 20 26" fill="none" xmlns="http://www.w3.org/2000/svg">
<path d="M14.1726 6.39224C14.1726 6.62852 14.1568 6.8648 14.1278 7.09839C14.141 7.00441 14.1542 6.90776 14.1647 6.81378C14.1014 7.28097 13.98 7.73473 13.8031 8.1697C13.8375 8.08378 13.8744 7.99786 13.9087 7.91194C13.7319 8.33617 13.5049 8.73355 13.2278 9.09871L13.3941 8.88122C13.1196 9.24101 12.8002 9.56589 12.4466 9.84513L12.6603 9.67598C12.3014 9.95522 11.9108 10.1888 11.4938 10.3687C11.5782 10.3338 11.6627 10.2962 11.7472 10.2613C11.3196 10.4412 10.8736 10.5647 10.4143 10.6291C10.5067 10.6157 10.6017 10.6023 10.6941 10.5916C10.2322 10.6533 9.76771 10.6533 9.30584 10.5916C9.39822 10.605 9.49323 10.6184 9.5856 10.6291C9.12637 10.5647 8.68034 10.4412 8.25277 10.2613C8.33723 10.2962 8.42169 10.3338 8.50614 10.3687C8.08914 10.1888 7.69853 9.9579 7.33959 9.67598L7.55337 9.84513C7.19971 9.56589 6.88036 9.24101 6.60587 8.88122L6.77215 9.09871C6.49766 8.73355 6.26805 8.33617 6.09122 7.91194C6.12553 7.99786 6.16248 8.08378 6.19679 8.1697C6.01996 7.73473 5.89855 7.28097 5.83521 6.81378C5.8484 6.90776 5.8616 7.00441 5.87216 7.09839C5.81145 6.62852 5.81145 6.15596 5.87216 5.68609C5.85896 5.78006 5.84577 5.87672 5.83521 5.97069C5.89855 5.50351 6.01996 5.04974 6.19679 4.61478C6.16248 4.7007 6.12553 4.78661 6.09122 4.87253C6.26805 4.44831 6.49502 4.05093 6.77215 3.68577L6.60587 3.90325C6.88036 3.54347 7.19971 3.21858 7.55337 2.93934L7.33959 3.1085C7.69853 2.82926 8.08914 2.59566 8.50614 2.41577C8.42169 2.45068 8.33723 2.48827 8.25277 2.52317C8.68034 2.34328 9.12637 2.21977 9.5856 2.15533C9.49323 2.16875 9.39822 2.18218 9.30584 2.19292C9.76771 2.13116 10.2322 2.13116 10.6941 2.19292C10.6017 2.17949 10.5067 2.16607 10.4143 2.15533C10.8736 2.21977 11.3196 2.34328 11.7472 2.52317C11.6627 2.48827 11.5782 2.45068 11.4938 2.41577C11.9108 2.59566 12.3014 2.82657 12.6603 3.1085L12.4466 2.93934C12.8002 3.21858 13.1196 3.54347 13.3941 3.90325L13.2278 3.68577C13.5023 4.05093 13.7319 4.44831 13.9087 4.87253C13.8744 4.78661 13.8375 4.7007 13.8031 4.61478C13.98 5.04974 14.1014 5.50351 14.1647 5.97069C14.1515 5.87672 14.1383 5.78006 14.1278 5.68609C14.1568 5.91968 14.17 6.15596 14.1726 6.39224C14.1753 6.9534 14.6556 7.49308 15.2283 7.46623C15.7984 7.43938 16.2867 6.99367 16.2841 6.39224C16.2788 5.10613 15.8987 3.79048 15.1544 2.74334C14.9539 2.46142 14.7401 2.18486 14.5026 1.93516C14.2624 1.68277 13.9985 1.46528 13.724 1.25317C13.2251 0.866532 12.6683 0.581924 12.0771 0.361755C9.69381 -0.526976 6.81965 0.265095 5.20706 2.26273C4.98536 2.53659 4.77422 2.8212 4.59475 3.12729C4.41528 3.4307 4.2754 3.75289 4.14608 4.08046C3.90327 4.68727 3.77922 5.33167 3.72907 5.98412C3.63142 7.26217 3.95869 8.59661 4.61323 9.69209C5.24401 10.75 6.19679 11.6575 7.31056 12.1703C7.63783 12.3207 7.97301 12.4603 8.32139 12.5597C8.66714 12.6563 9.01816 12.71 9.37446 12.753C10.0237 12.8308 10.6862 12.7771 11.3275 12.6456C13.7636 12.1408 15.8037 10.0062 16.1811 7.50114C16.2365 7.13598 16.2788 6.77082 16.2788 6.40029C16.2814 5.83913 15.7905 5.29945 15.2231 5.3263C14.653 5.34509 14.1726 5.7908 14.1726 6.39224ZM17.6749 23.1815H4.13288C3.53377 23.1815 2.93466 23.1868 2.33554 23.1815C2.26956 23.1815 2.20358 23.1761 2.14024 23.168C2.23261 23.1815 2.32762 23.1949 2.42 23.2056C2.31443 23.1895 2.21414 23.16 2.11648 23.1197C2.20094 23.1546 2.2854 23.1922 2.36985 23.2271C2.26428 23.1815 2.16663 23.1224 2.07426 23.0499L2.28804 23.2191C2.20886 23.1519 2.13496 23.0794 2.07162 22.9989L2.23789 23.2164C2.16663 23.1224 2.11121 23.0231 2.0637 22.9157C2.09801 23.0016 2.13496 23.0875 2.16927 23.1734C2.12968 23.0741 2.10329 22.9694 2.08481 22.8646C2.09801 22.9586 2.11121 23.0553 2.12176 23.1492C2.07953 22.8244 2.10857 22.4807 2.10857 22.1531V21.0039C2.10857 20.7166 2.1244 20.432 2.16135 20.1474C2.14815 20.2414 2.13496 20.3381 2.1244 20.432C2.1983 19.8816 2.34082 19.3419 2.5546 18.8291C2.52029 18.915 2.48334 19.0009 2.44903 19.0869C2.65489 18.5982 2.91882 18.1391 3.23817 17.7175L3.0719 17.935C3.39125 17.5188 3.75811 17.1429 4.16983 16.818L3.95605 16.9872C4.37042 16.6623 4.82173 16.3938 5.30208 16.1844C5.21762 16.2193 5.13316 16.2569 5.04871 16.2918C5.55281 16.077 6.08066 15.9293 6.62435 15.8541C6.53197 15.8676 6.43696 15.881 6.34459 15.8917C6.7352 15.8407 7.12317 15.838 7.51642 15.838H12.3463C12.7818 15.838 13.2146 15.8353 13.6501 15.8917C13.5577 15.8783 13.4627 15.8649 13.3703 15.8541C13.9114 15.9293 14.4418 16.0743 14.9459 16.2918C14.8615 16.2569 14.777 16.2193 14.6926 16.1844C15.1729 16.3938 15.6242 16.6623 16.0386 16.9872L15.8248 16.818C16.2339 17.1429 16.6034 17.5161 16.9228 17.935L16.7565 17.7175C17.0758 18.1391 17.3398 18.5982 17.5456 19.0869C17.5113 19.0009 17.4744 18.915 17.4401 18.8291C17.6512 19.3419 17.7964 19.8789 17.8703 20.432C17.8571 20.3381 17.8439 20.2414 17.8333 20.1474C17.8834 20.5529 17.8861 20.9556 17.8861 21.3637V22.6928C17.8861 22.8458 17.8914 22.9989 17.8729 23.1492C17.8861 23.0553 17.8993 22.9586 17.9098 22.8646C17.894 22.972 17.865 23.0741 17.8254 23.1734C17.8597 23.0875 17.8966 23.0016 17.931 22.9157C17.8861 23.0231 17.828 23.1224 17.7568 23.2164L17.923 22.9989C17.8571 23.0794 17.7858 23.1546 17.7066 23.2191L17.9204 23.0499C17.828 23.1224 17.7304 23.1788 17.6248 23.2271C17.7093 23.1922 17.7937 23.1546 17.8782 23.1197C17.7805 23.16 17.6776 23.1868 17.5747 23.2056C17.667 23.1922 17.762 23.1788 17.8544 23.168C17.7964 23.1761 17.7357 23.1788 17.6749 23.1815C17.4031 23.1842 17.1233 23.2996 16.928 23.4956C16.7459 23.6809 16.606 23.987 16.6192 24.2555C16.6456 24.83 17.0838 25.3375 17.6749 25.3295C18.7016 25.3133 19.6042 24.6314 19.9051 23.6299C20.0239 23.2325 19.9975 22.8056 19.9975 22.3974C19.9975 21.4631 20.0265 20.5368 19.8682 19.6104C19.6359 18.2545 18.9655 16.9791 18.0471 15.9776C17.1286 14.9761 15.8934 14.2405 14.587 13.9129C13.8375 13.7249 13.0826 13.6954 12.3172 13.6954H7.63519C6.85132 13.6954 6.07274 13.733 5.30999 13.9397C4.01411 14.2888 2.79477 15.0325 1.89479 16.0421C0.986878 17.0597 0.329702 18.3377 0.115921 19.7017C-0.0265991 20.6173 0.00243271 21.5356 0.00243271 22.4592C0.00243271 22.8834 -0.0213206 23.3265 0.129118 23.7319C0.324423 24.2528 0.635856 24.6636 1.09245 24.9724C1.44875 25.2113 1.90006 25.3268 2.32235 25.3321C2.52821 25.3348 2.73407 25.3321 2.93993 25.3321H17.6776C18.2292 25.3321 18.7597 24.8381 18.7333 24.2581C18.7069 23.6728 18.2688 23.1815 17.6749 23.1815Z" fill="#C29C6A"/>
</svg>
